Coordinates
version=1
nRows=4
nColumns=114
inDegrees=yes

Units are S.I. units (second, meters, Newtons, ...)
If the header above contains a line with 'inDegrees', this indicates whether rotational values are in degrees (yes) or radians (no).

endheader 
time	pelvis_tilt	pelvis_list	pelvis_rotation	pelvis_tx	pelvis_ty	pelvis_tz	hip_flexion_l	hip_adduction_l	hip_rotation_l	hip_flexion_r	hip_adduction_r	hip_rotation_r	knee_angle_l	knee_angle_r	ankle_angle_l	ankle_angle_r	subtalar_angle_l	subtalar_angle_r	mtp_angle_l	mtp_angle_r	lumbar_extension	lumbar_bending	lumbar_rotation	arm_flex_l	arm_add_l	arm_rot_l	arm_flex_r	arm_add_r	arm_rot_r	elbow_flex_l	elbow_flex_r	pro_sup_l	pro_sup_r	addbrev_l/activation	addlong_l/activation	addmagDist_l/activation	addmagIsch_l/activation	addmagMid_l/activation	addmagProx_l/activation	bflh_l/activation	bfsh_l/activation	edl_l/activation	ehl_l/activation	fdl_l/activation	fhl_l/activation	gaslat_l/activation	gasmed_l/activation	glmax1_l/activation	glmax2_l/activation	glmax3_l/activation	glmed1_l/activation	glmed2_l/activation	glmed3_l/activation	glmin1_l/activation	glmin2_l/activation	glmin3_l/activation	grac_l/activation	iliacus_l/activation	perbrev_l/activation	perlong_l/activation	piri_l/activation	psoas_l/activation	recfem_l/activation	sart_l/activation	semimem_l/activation	semiten_l/activation	soleus_l/activation	tfl_l/activation	tibant_l/activation	tibpost_l/activation	vasint_l/activation	vaslat_l/activation	vasmed_l/activation	addbrev_r/activation	addlong_r/activation	addmagDist_r/activation	addmagIsch_r/activation	addmagMid_r/activation	addmagProx_r/activation	bflh_r/activation	bfsh_r/activation	edl_r/activation	ehl_r/activation	fdl_r/activation	fhl_r/activation	gaslat_r/activation	gasmed_r/activation	glmax1_r/activation	glmax2_r/activation	glmax3_r/activation	glmed1_r/activation	glmed2_r/activation	glmed3_r/activation	glmin1_r/activation	glmin2_r/activation	glmin3_r/activation	grac_r/activation	iliacus_r/activation	perbrev_r/activation	perlong_r/activation	piri_r/activation	psoas_r/activation	recfem_r/activation	sart_r/activation	semimem_r/activation	semiten_r/activation	soleus_r/activation	tfl_r/activation	tibant_r/activation	tibpost_r/activation	vasint_r/activation	vaslat_r/activation	vasmed_r/activation	
         11.60000000	         -8.31919222	        -14.03298399	         84.78067860	         -1.07387464	          1.55303673	         -0.25302550	         11.95899109	        -20.56212573	         14.51567566	         30.60261798	        -36.17499980	         -1.83269658	         85.17101884	         10.48159889	        -15.84507031	        -21.31971563	        -17.31623879	         -0.76564107	          0.58590647	          0.33601990	        -45.31765029	         12.09879184	          6.04077247	        -50.73085328	        -30.79760040	        434.99174972	       -413.50936268	         22.78528758	        131.82749852	         90.07857991	         48.91624866	         84.42745679	         94.37586511	          0.05285879	          0.75035259	          0.01203566	          0.01005244	          0.04371871	          0.45457745	          0.51476825	          0.17777289	          0.10980844	          0.02416126	          0.01127102	          0.01068672	          0.03700847	          0.04821189	          0.22689099	          0.67547059	          0.59089266	          0.01003063	          0.01006677	          0.04745792	          0.01008665	          0.01492880	          0.06142938	          0.99265268	          0.01051948	          0.02043617	          0.04083508	          0.28388166	          0.45673746	          0.75454956	          0.31578664	          0.02655879	          0.25379469	          0.01009999	          0.24190043	          0.12348885	          0.01040308	          0.01122942	          0.01065233	          0.01095834	          0.01010340	          0.01006802	          0.01003096	          0.01002990	          0.01003962	          0.20610794	          0.10241071	          0.24104151	          0.47661761	          0.06301954	          0.01031021	          0.01010383	          0.11194796	          0.11323605	          0.01002440	          0.01002227	          0.05948752	          0.01001101	          0.01001878	          0.01002262	          0.01003243	          0.01006977	          0.07620029	          0.01152522	          0.11913241	          0.14843073	          0.18739182	          0.05969133	          0.93772417	          0.06558840	          0.89820362	          0.01002226	          0.01004498	          0.01001268	          0.05531919	          0.68043507	          0.01006061	          0.01021680	          0.01348681	          0.01010571	
         11.61000000	         -7.57052179	        -14.64713066	         85.56311326	         -1.05063552	          1.55072541	         -0.25548342	         10.37493551	        -22.79578970	         12.32045294	         32.11511644	        -35.40859417	         -1.84724514	         83.51877355	         12.91217487	        -16.13406582	        -19.21150917	        -18.50896247	         -2.47323929	          0.60006846	          0.38598419	        -43.99757787	         12.21053037	          4.90330757	        -51.36720450	        -36.62649490	        427.06859537	       -403.49873817	         13.66052460	         81.18609525	         89.30991874	         71.35605072	         84.67791231	         94.79938362	          0.04406834	          0.62530089	          0.01005385	          0.01002588	          0.03644044	          0.37883779	          0.57919292	          0.65767216	          0.11988701	          0.02122978	          0.01049843	          0.01024746	          0.16040706	          0.21711203	          0.18909946	          0.56658273	          0.49242554	          0.01009375	          0.01200296	          0.08082846	          0.01027224	          0.07407873	          0.08943842	          0.83486682	          0.01024097	          0.04765652	          0.05737635	          0.23666426	          0.38064908	          0.62881208	          0.77151308	          0.02277096	          0.46809242	          0.01004305	          0.20174318	          0.14962316	          0.01011764	          0.01002673	          0.01000939	          0.01001813	          0.02871362	          0.04446650	          0.01011028	          0.01005559	          0.01196296	          0.61395734	          0.41388226	          0.74700008	          0.46937884	          0.09774861	          0.01011353	          0.01005676	          0.12308108	          0.09436834	          0.01001648	          0.01001420	          0.04957414	          0.01000783	          0.01001198	          0.01001322	          0.01002490	          0.01003766	          0.06350361	          0.10479428	          0.09940393	          0.12381244	          0.18728604	          0.04975139	          0.97923302	          0.05468731	          0.96603932	          0.03092759	          0.04452574	          0.01000796	          0.04616217	          0.83417709	          0.01002751	          0.01000534	          0.01123952	          0.01000380	
         11.62000000	         -6.43329029	        -15.11293467	         86.17606763	         -1.02924548	          1.54930716	         -0.25549554	          9.06365561	        -24.83720758	         10.13641820	         34.53172573	        -34.21031338	         -1.43897105	         82.53893696	         16.85770627	        -16.07447765	        -16.30851150	        -19.69535422	         -4.61505986	          0.59107705	          0.40799010	        -42.88745750	         12.88594667	          3.39263166	        -50.47970888	        -40.72554223	        419.97647441	       -412.29295167	          9.45464898	         75.35238310	         84.26012447	         75.44095585	         84.48731242	         94.84167864	          0.03696206	          0.80287625	          0.01004390	          0.01002561	          0.03038582	          0.39529721	          0.62432447	          0.54827766	          0.11274257	          0.05492291	          0.01053265	          0.01025167	          0.13653631	          0.18179220	          0.15759376	          0.47216931	          0.41039673	          0.01004540	          0.01022820	          0.06738784	          0.01013599	          0.06181775	          0.07497286	          0.94493066	          0.07187239	          0.04013657	          0.06441116	          0.22069354	          0.79342640	          0.52401893	          0.69787475	          0.01919270	          0.39013481	          0.01003236	          0.16818212	          0.16099838	          0.01013033	          0.01003066	          0.01001099	          0.01002097	          0.02400509	          0.03710859	          0.01001962	          0.01001722	          0.01006771	          0.51167568	          0.34491323	          0.62259404	          0.50771509	          0.13926969	          0.01014389	          0.01005638	          0.10256855	          0.07864249	          0.01000901	          0.01000565	          0.04131283	          0.01000669	          0.01000909	          0.01000858	          0.01002310	          0.01003519	          0.05292260	          0.08743289	          0.15725923	          0.12667415	          0.21828730	          0.04146708	          0.99306889	          0.04561887	          0.98867208	          0.02578881	          0.03713743	          0.01000534	          0.03856863	          0.94465565	          0.01003159	          0.01000368	          0.01000094	          0.01000256	
         11.63000000	         -5.13848843	        -15.62832360	         86.58988487	         -1.00736410	          1.54825369	         -0.25483836	          7.93628454	        -26.70915541	          7.87147937	         37.67207188	        -32.62516567	         -0.71256916	         81.87165133	         21.86786417	        -15.83900530	        -12.84954338	        -20.82376088	         -7.05284299	          0.57645391	          0.40589135	        -42.09701899	         13.67397158	          2.52025650	        -47.99031431	        -43.62715294	        412.06281531	       -416.55170967	          7.15907951	         75.15024375	         76.08337791	         72.83540228	         84.21337770	         94.58610726	          0.18772058	          0.78436727	          0.01004744	          0.01002379	          0.02536436	          0.61480105	          0.70360890	          0.57967676	          0.09408325	          0.04629592	          0.01020725	          0.01009197	          0.16258241	          0.21755462	          0.13133701	          0.39349078	          0.34202856	          0.01003956	          0.01011731	          0.05617688	          0.01011974	          0.05156613	          0.06908080	          0.98161994	          0.06006356	          0.03383296	          0.05372116	          0.18398456	          0.76675884	          0.43668754	          0.79149910	          0.01624990	          0.47187583	          0.01001833	          0.14018642	          0.17293622	          0.01004177	          0.01002472	          0.01000889	          0.01001698	          0.02003444	          0.03094003	          0.01001743	          0.01001658	          0.01004149	          0.42644499	          0.31813364	          0.51941092	          0.42318494	          0.22236415	          0.01004260	          0.01001741	          0.08547841	          0.06553582	          0.01000864	          0.01000545	          0.03442880	          0.01000610	          0.01000829	          0.01000786	          0.01002137	          0.01003095	          0.04410469	          0.07292224	          0.13105533	          0.17728609	          0.18464644	          0.03456263	          0.82757536	          0.03808004	          0.99621284	          0.02150909	          0.03097928	          0.01000161	          0.03229229	          0.78761931	          0.01000955	          0.01000310	          0.01000099	          0.01000217	
